# xmcd
#
# Track frame offsets: 
#        150
#        27210
#        53695
#        72396
#        100378
#        122296
#        145388
#        173229
#        190867
#
# Disc length: 2853 seconds
#
# Revision: 0
# Processed by: cddbd v1.5.2PL0 Copyright (c) Steve Scherf et al.
# Submitted via: ExactAudioCopy v1.0b3
#
DISCID=790b2309
DTITLE=New World Generation - New World Generation
DYEAR=2011
DGENRE=Funk
TTITLE0=Sunshine
TTITLE1=Curious Soul
TTITLE2=Dreamland
TTITLE3=One Of A Kind
TTITLE4=I'm Feelin' Fine
TTITLE5=New World Generation
TTITLE6=Mystical Planet
TTITLE7=Celebrate
TTITLE8=Do What You Do
EXTD=
EXTT0=
EXTT1=
EXTT2=
EXTT3=
EXTT4=
EXTT5=
EXTT6=
EXTT7=
EXTT8=
PLAYORDER=
